# xmcd CD database file
#
# Track frame offsets:
#	150
#	23277
#	49910
#	71137
#	93247
#	113620
#	136385
#	158470
#	174407
#	196880
#	231620
#	247802
#
# Disc length: 3569 seconds
#
# Revision: 0
# Processed by: cddbd v1.5.2PL0 Copyright (c) Steve Scherf et al.
# Submitted via: CDex 1.70beta2
#
DISCID=910def0c
DTITLE=Varios Artístas - Open Mind
DYEAR=2000
DGENRE=New Age
TTITLE0=Lisa
TTITLE1=A Thousand Years
TTITLE2=It´s Not Easy
TTITLE3=Ice Folk
TTITLE4=Vivo Sanhando
TTITLE5=Rahman
TTITLE6=Lejos de Usted
TTITLE7=My Commitment
TTITLE8=The Best Time
TTITLE9=By George
TTITLE10=One Note
TTITLE11=One More Time
EXTD=YEAR: 2000
EXTT0=
EXTT1=
EXTT2=
EXTT3=
EXTT4=
EXTT5=
EXTT6=
EXTT7=
EXTT8=
EXTT9=
EXTT10=
EXTT11=
PLAYORDER=
